<svg xmlns="http://www.w3.org/2000/svg" width="17.548" height="17.551" viewBox="0 0 17.548 17.551">
  <g id="ask" transform="translate(-6627.488 -12360.448)">
    <path id="Path_458" data-name="Path 458" d="M22.644,11.981h-9.35a1.61,1.61,0,0,0-1.608,1.608V20.1a1.606,1.606,0,0,0,1.608,1.6h5.35a.461.461,0,0,1,.321.135l2.658,2.451c.148.143.392.084.392-.122V22.032c0-.253.16-.333.413-.333h.042a1.756,1.756,0,0,0,1.776-1.6V13.589A1.6,1.6,0,0,0,22.644,11.981Z" transform="translate(6620.79 12353.632)" fill="#ff6c66"/>
    <path id="Path_459" data-name="Path 459" d="M8.708,7.506h7.485V4.75a1.376,1.376,0,0,0-1.375-1.375H4.75A1.376,1.376,0,0,0,3.375,4.75v6.97A1.376,1.376,0,0,0,4.75,13.1H7.329V8.881A1.382,1.382,0,0,1,8.708,7.506Z" transform="translate(6624.113 12357.073)" fill="#ff6c66"/>
  </g>
</svg>
