<svg xmlns="http://www.w3.org/2000/svg" width="40" height="40" viewBox="0 0 40 40">
  <g id="ask2" transform="translate(-413 -234)">
    <circle id="Ellipse_59" data-name="Ellipse 59" cx="20" cy="20" r="20" transform="translate(413 234)" fill="#933dc4" opacity="0.16"/>
    <g id="Group_493" data-name="Group 493" transform="translate(424 246.448)">
      <path id="Path_458" data-name="Path 458" d="M22.644,11.981h-9.35a1.61,1.61,0,0,0-1.608,1.608V20.1a1.606,1.606,0,0,0,1.608,1.6h5.35a.461.461,0,0,1,.321.135l2.658,2.451c.148.143.392.084.392-.122V22.032c0-.253.16-.333.413-.333h.042a1.756,1.756,0,0,0,1.776-1.6V13.589A1.6,1.6,0,0,0,22.644,11.981Z" transform="translate(-6.699 -6.816)" fill="#933dc4"/>
      <path id="Path_459" data-name="Path 459" d="M8.708,7.506h7.485V4.75a1.376,1.376,0,0,0-1.375-1.375H4.75A1.376,1.376,0,0,0,3.375,4.75v6.97A1.376,1.376,0,0,0,4.75,13.1H7.329V8.881A1.382,1.382,0,0,1,8.708,7.506Z" transform="translate(-3.375 -3.375)" fill="#933dc4"/>
    </g>
  </g>
</svg>
