<svg xmlns="http://www.w3.org/2000/svg" width="13.5" height="18" viewBox="0 0 13.5 18">
  <path id="bag" d="M11.813,2.25H9a2.25,2.25,0,1,0-4.5,0H1.688A1.688,1.688,0,0,0,0,3.938V16.313A1.688,1.688,0,0,0,1.688,18H11.813A1.688,1.688,0,0,0,13.5,16.313V3.938A1.688,1.688,0,0,0,11.813,2.25ZM6.75,1.406a.844.844,0,1,1-.844.844A.842.842,0,0,1,6.75,1.406Zm4.261,8.149L5.984,14.541a.422.422,0,0,1-.6,0l-2.9-2.929a.422.422,0,0,1,0-.6l1-.991a.422.422,0,0,1,.6,0L5.7,11.654l3.727-3.7a.422.422,0,0,1,.6,0l.991,1A.422.422,0,0,1,11.011,9.555Z" fill="#ff6c66"/>
</svg>
