<svg xmlns="http://www.w3.org/2000/svg" width="40" height="40" viewBox="0 0 40 40">
  <g id="booking" transform="translate(-413 -234)">
    <circle id="Ellipse_59" data-name="Ellipse 59" cx="20" cy="20" r="20" transform="translate(413 234)" fill="#25258a" opacity="0.16"/>
    <path id="Icon_awesome-calendar-check" data-name="Icon awesome-calendar-check" d="M16.65,6.11H.458A.458.458,0,0,1,0,5.652V4.277A1.833,1.833,0,0,1,1.833,2.444H3.666V.458A.458.458,0,0,1,4.124,0H5.652A.458.458,0,0,1,6.11.458V2.444H11V.458A.458.458,0,0,1,11.456,0h1.527a.458.458,0,0,1,.458.458V2.444h1.833a1.833,1.833,0,0,1,1.833,1.833V5.652A.458.458,0,0,1,16.65,6.11ZM.458,7.332H16.65a.458.458,0,0,1,.458.458v9.929a1.833,1.833,0,0,1-1.833,1.833H1.833A1.833,1.833,0,0,1,0,17.719V7.79A.458.458,0,0,1,.458,7.332ZM13.186,11,12.11,9.911a.458.458,0,0,0-.648,0L7.413,13.925l-1.756-1.77a.458.458,0,0,0-.648,0L3.925,13.229a.458.458,0,0,0,0,.648l3.154,3.18a.458.458,0,0,0,.648,0l5.459-5.415a.458.458,0,0,0,0-.648Z" transform="translate(424.719 244.448)" fill="#25258a"/>
  </g>
</svg>
