<svg xmlns="http://www.w3.org/2000/svg" width="14.625" height="14.625" viewBox="0 0 14.625 14.625">
  <g id="chat2" transform="translate(-3.375 -3.375)">
    <path id="Path_450" data-name="Path 450" d="M6.356,18.563a1.835,1.835,0,0,1-1.575-1.575V11.25H4.444a1.073,1.073,0,0,0-1.069,1.069v9.619L5.432,19.9h7.562a1.086,1.086,0,0,0,1.069-1.086v-.25Z" transform="translate(0 -3.938)" fill="#ff6c66"/>
    <path id="Path_451" data-name="Path 451" d="M19.129,3.375H9.313A1.23,1.23,0,0,0,8.086,4.6v7.949a1.233,1.233,0,0,0,1.227,1.23h8.374l2.668,1.863V4.6A1.23,1.23,0,0,0,19.129,3.375Z" transform="translate(-2.355)" fill="#ff6c66"/>
  </g>
</svg>
