<svg xmlns="http://www.w3.org/2000/svg" width="21.084" height="21.084" viewBox="0 0 21.084 21.084">
  <g id="doctor" transform="translate(-6493.75 -12691.75)">
    <path id="Path_404" data-name="Path 404" d="M17.569,9.689A3.02,3.02,0,0,0,14.614,12.1H13.87a3.019,3.019,0,0,0-3.015,3.015v2.452a1.809,1.809,0,1,1-3.618,0V15.616A1.812,1.812,0,0,0,8.443,13.91V12.859a7.817,7.817,0,0,0,2.966-2.931,11.7,11.7,0,0,0,1.859-5.666c0-1.342-.074-2.179-1.248-2.84A1.81,1.81,0,1,0,11.8,2.744c.222.253.261.632.261,1.517a10.588,10.588,0,0,1-1.674,5.024C9.263,11.075,7.894,12.1,6.634,12.1S4,11.075,2.88,9.286A10.588,10.588,0,0,1,1.206,4.262c0-.885.039-1.264.261-1.517a1.809,1.809,0,1,0-.219-1.322C.074,2.083,0,2.919,0,4.262A11.7,11.7,0,0,0,1.859,9.928a7.817,7.817,0,0,0,2.966,2.931V13.91A1.812,1.812,0,0,0,6.03,15.616v1.953a3.015,3.015,0,0,0,6.03,0V15.116a1.811,1.811,0,0,1,1.809-1.809h.744a3.015,3.015,0,1,0,2.955-3.618ZM10.252,2.412a.6.6,0,1,1,.6-.6A.6.6,0,0,1,10.252,2.412ZM3.015,1.206a.6.6,0,1,1-.6.6A.6.6,0,0,1,3.015,1.206ZM6.634,14.513a.6.6,0,0,1-.6-.6v-.653a3.643,3.643,0,0,0,1.206,0v.653A.6.6,0,0,1,6.634,14.513Zm10.935,0A1.809,1.809,0,1,1,19.378,12.7,1.811,1.811,0,0,1,17.569,14.513Z" transform="translate(6494 12692)" fill="#ff6c66" stroke="#ff6c66" stroke-width="0.5"/>
    <path id="Path_405" data-name="Path 405" d="M422,301h1.206v1.206H422Z" transform="translate(6088.966 12403.102)" fill="#ff6c66" stroke="#ff6c66" stroke-width="0.5"/>
  </g>
</svg>
