<svg xmlns="http://www.w3.org/2000/svg" width="40" height="40" viewBox="0 0 40 40">
  <g id="free-trial" transform="translate(-413 -234)">
    <path id="Path_462" data-name="Path 462" d="M20,0A20,20,0,1,1,0,20,20,20,0,0,1,20,0Z" transform="translate(413 234)" fill="#fff" opacity="0.1"/>
    <path id="Icon_awesome-paper-plane" data-name="Icon awesome-paper-plane" d="M13.943.092.367,7.925A.7.7,0,0,0,.431,9.19L3.545,10.5,11.96,3.08a.176.176,0,0,1,.252.243l-7.056,8.6v2.358a.7.7,0,0,0,1.245.463l1.86-2.264,3.65,1.529a.7.7,0,0,0,.967-.533L14.986.819A.7.7,0,0,0,13.943.092Z" transform="translate(423.999 247.002)" fill="#fff"/>
  </g>
</svg>
