<svg xmlns="http://www.w3.org/2000/svg" width="19.289" height="15" viewBox="0 0 19.289 15">
  <path id="home" d="M9.388,6.145,3.214,11.23v5.488a.536.536,0,0,0,.536.536l3.752-.01a.536.536,0,0,0,.533-.536V13.5a.536.536,0,0,1,.536-.536h2.143a.536.536,0,0,1,.536.536v3.2a.536.536,0,0,0,.536.537l3.751.01a.536.536,0,0,0,.536-.536V11.226L9.9,6.145A.408.408,0,0,0,9.388,6.145ZM19.14,9.6l-2.8-2.308V2.655a.4.4,0,0,0-.4-.4H14.064a.4.4,0,0,0-.4.4V5.087l-3-2.467a1.607,1.607,0,0,0-2.043,0L.145,9.6a.4.4,0,0,0-.054.566L.945,11.2a.4.4,0,0,0,.566.055L9.388,4.772a.408.408,0,0,1,.512,0l7.877,6.488a.4.4,0,0,0,.566-.054l.854-1.038A.4.4,0,0,0,19.14,9.6Z" transform="translate(0.001 -2.254)" fill="#2c99cb"/>
</svg>
