<svg xmlns="http://www.w3.org/2000/svg" width="15.794" height="12.282" viewBox="0 0 15.794 12.282">
  <path id="home-2" d="M7.686,5.44,2.631,9.6V14.1a.439.439,0,0,0,.439.439l3.072-.008a.439.439,0,0,0,.436-.439V11.464a.439.439,0,0,1,.439-.439H8.772a.439.439,0,0,1,.439.439v2.622a.439.439,0,0,0,.439.44l3.071.009a.439.439,0,0,0,.439-.439V9.6L8.106,5.44A.334.334,0,0,0,7.686,5.44Zm7.985,2.83L13.379,6.38v-3.8a.329.329,0,0,0-.329-.329H11.515a.329.329,0,0,0-.329.329V4.573L8.731,2.554a1.316,1.316,0,0,0-1.672,0L.118,8.269a.329.329,0,0,0-.044.463l.7.85a.329.329,0,0,0,.464.045L7.686,4.316a.334.334,0,0,1,.419,0l6.449,5.312a.329.329,0,0,0,.463-.044l.7-.85a.329.329,0,0,0-.047-.464Z" transform="translate(0.001 -2.254)" fill="#ff6c66"/>
</svg>
