<svg xmlns="http://www.w3.org/2000/svg" width="54.075" height="51.103" viewBox="0 0 54.075 51.103">
  <path id="Union_22" data-name="Union 22" d="M0,51.1V47.945H.011a14.855,14.855,0,0,0,3.982-.382,2.512,2.512,0,0,0,1.664-1.34,8.075,8.075,0,0,0,.428-3.062V14.829a5.5,5.5,0,0,0-.523-2.919,2.683,2.683,0,0,0-2.234-.718H.19V8.034L15.117,5.641H19.2v8.108a10.257,10.257,0,0,0-.763-1.871A6.873,6.873,0,0,0,17.3,10.231a3.97,3.97,0,0,0-1.008-.755,4.88,4.88,0,0,0-1.264-.448c-.143-.031-.289-.056-.437-.076a8.843,8.843,0,0,0-1.217-.074c-.243,0-.5.006-.837.02l-.5.024h0c-.442.022-.9.045-1.347.045a6.8,6.8,0,0,1-2.356-.344.2.2,0,0,0-.068-.013.184.184,0,0,0-.031,0,.188.188,0,0,0-.137.1.206.206,0,0,0,0,.187c.2.4.379.835.553,1.255a13.225,13.225,0,0,0,.95,1.976,5.859,5.859,0,0,0,3.553,2.693,5.531,5.531,0,0,0,1.186.141c.085,0,.173,0,.267,0,.29,0,.587-.01.875-.021s.58-.02.87-.02a6.078,6.078,0,0,1,1.432.14.612.612,0,0,0,.141.019.323.323,0,0,0,.055,0,.218.218,0,0,0,.19-.223c.047-.565-.994-2.032-2.542-2.555-.4-.134-.81-.25-1.2-.358a.062.062,0,0,1-.049-.066.066.066,0,0,1,.054-.064h.02c.392.049.709.1,1,.155a4.224,4.224,0,0,1,2.984,1.883,5.878,5.878,0,0,1,.823,2.192l.033.942c0,.054-.01.108-.017.16a.148.148,0,0,0,.026.107l.015.418a32.453,32.453,0,0,1,2.257-6.187,21.987,21.987,0,0,1,3.441-5.344,12.694,12.694,0,0,1,3.112-2.5,15.587,15.587,0,0,1,3.954-1.559c.455-.115.916-.211,1.375-.291a36.358,36.358,0,0,1,6.5-.4c4.5.036,9.065.331,13.279-1.341a.574.574,0,0,1,.315-.042.617.617,0,0,1,.455.9C52.494,4.25,51.452,8.137,49.6,11.309a18.7,18.7,0,0,1-10.962,8.93,17.754,17.754,0,0,1-3.742.579c-1.193.073-2.408.073-3.622.073A27.3,27.3,0,0,0,24,21.527a1.586,1.586,0,0,1-.619.069c-2.1-.26,1.182-6.81,7.146-9.06,1.218-.46,2.488-.866,3.766-1.267a.211.211,0,0,0-.03-.409.166.166,0,0,0-.064,0c-1.064.172-2.113.362-3.147.6-3.891.9-7.211,2.749-9.247,6.3a18.853,18.853,0,0,0-2.259,6.251l.041,1.153V43.159a6.743,6.743,0,0,0,.523,3.062,2.985,2.985,0,0,0,2,1.34,21.326,21.326,0,0,0,4.8.383V51.1H0Z" fill="#ff6c66"/>
</svg>
