<?xml version="1.0" encoding="utf-8"?>
<!-- Generator: Adobe Illustrator 22.0.1, SVG Export Plug-In . SVG Version: 6.00 Build 0)  -->
<svg version="1.1" id="_x33_0" xmlns="http://www.w3.org/2000/svg" xmlns:xlink="http://www.w3.org/1999/xlink" x="0px" y="0px"
	 viewBox="0 0 512 512" style="enable-background:new 0 0 512 512;" xml:space="preserve">
<style type="text/css">
	.st0{fill:#CC0000;}
	.st1{fill:#1F373D;}
</style>
<g>
	<path class="st0" d="M136,8c-52.9,0-96,43.1-96,96v145.7c3.4-3.3,7-6.4,11-9.1c8.6-5.7,18.1-9.7,28.2-11.7l24.7-5l7.4-29.7h0.2
		c-18.6-9-31.5-28-31.5-50.2v-36.6C80,96.7,88.7,88,99.4,88c3,0,6,0.7,8.7,2c18.4,9.2,38.6,14,59.1,14c13.7,0,24.8,11.1,24.8,24.8
		V144c0,22.2-12.9,41.2-31.6,50.3h0.2L168,224l24.7,4.9c10.1,2,19.7,6,28.2,11.7c4,2.7,7.6,5.8,11,9.1V104C232,51.1,188.9,8,136,8
		L136,8z"/>
	<path class="st0" d="M472,72c0-16.2-12.1-29.7-27.8-31.7l-4.1-5.4C427.5,18,407.5,8,386.4,8c-7.8,0-15.6,1.4-23,4l-52.6,19.1
		c-18.4,6.7-30.8,24.4-30.8,44c0,3.8,0.5,7.7,1.4,11.5l6.6,28V128c0-13.3,10.7-24,24-24h8c40-8,48-32,88-32c13.3,0,24,10.7,24,24v8
		h8c13.3,0,24,10.7,24,24l-0.5-15.2C463.9,111.8,472,89.3,472,72L472,72z"/>
	<g>
		<path class="st1" d="M465.4,234c-9.5-6.3-19.9-10.6-31.1-12.9l-19.8-4l-4.7-18.9c13.7-8.6,23.9-22.2,28.1-38.2h2.1
			c17.6,0,32-14.4,32-32s-14.4-32-32-32c0-17.6-14.4-32-32-32c-24.2,0-38.2,8.3-51.8,16.3C346,86.4,335.3,92.6,319.1,96H312
			c-17.6,0-32,14.4-32,32s14.4,32,32,32h2.1c4.2,16.1,14.4,29.7,28.1,38.2l-4.7,18.9l-19.8,4c-11.2,2.2-21.6,6.6-31.1,12.9
			c-13.6,9.1-24,21.7-30.6,36.1c-6.6-14.4-17-27-30.6-36.1c-9.5-6.3-19.9-10.6-31.1-12.9l-19.8-4l-4.7-18.9
			c18.1-11.3,30.2-31.4,30.2-54.2v-15.2c0-18.1-14.7-32.8-32.8-32.8c-19.2,0-38.4-4.5-55.5-13.1c-3.8-1.9-8-2.9-12.3-2.9
			C84.3,80,72,92.3,72,107.4V144c0,22.9,12.1,42.9,30.2,54.2l-4.7,18.9l-19.8,4c-11.2,2.2-21.6,6.6-31.1,12.9
			C22.4,250.1,8,277.1,8,306.1V424c0,17.6,14.4,32,32,32c5.9,0,11.3-1.7,16-4.4V504h160v-56h-16v40H72v-64h104v-16H72v-40v-56v-16
			H56v16v16H24v-21.9c0-23.7,11.8-45.7,31.5-58.8c5.3-3.5,11-6.2,16.9-8.2c2.7,25.3,21.2,45.3,46.3,48.8l5.7,0.8l11.6-23l11.6,23
			l5.7-0.8c25.2-3.6,43.6-23.5,46.3-48.8c6,2,11.6,4.7,16.9,8.2c19.7,13.1,31.5,35.1,31.5,58.8V328h16v-21.9
			c0-23.7,11.8-45.7,31.5-58.8c7.7-5.2,16.3-8.7,25.4-10.5l0.5-0.1l8.5,56.3l46.1-27.7l46.1,27.7l8.5-56.3l0.5,0.1
			c9.1,1.8,17.6,5.4,25.4,10.5c19.7,13.1,31.5,35.1,31.5,58.8V392h-32v-80h-16v96H336v16h104v64h-56v-32h-16v32h-56v-40h-16v56h160
			v-52.4c4.7,2.8,10.1,4.4,16,4.4c17.6,0,32-14.4,32-32V306.1C504,277.1,489.6,250.1,465.4,234z M456,128c0,8.8-7.2,16-16,16v-32
			C448.8,112,456,119.2,456,128z M56,344v24v56c0,8.8-7.2,16-16,16s-16-7.2-16-16v-80H56z M88,144v-36.6c0-6.3,5.1-11.4,11.4-11.4
			c1.8,0,3.5,0.4,5.1,1.2c19.4,9.7,41,14.8,62.7,14.8c9.3,0,16.8,7.5,16.8,16.8V144c0,26.5-21.5,48-48,48S88,170.5,88,144z M136,208
			c6.6,0,13-1,19-2.9l4.1,16.5c-2.6,10.7-12.1,18.4-23.2,18.4s-20.6-7.7-23.2-18.3l4.1-16.5C123,207,129.4,208,136,208L136,208z
			 M115.5,270.9c-15.7-4.5-26.3-18.3-27.3-35.6L100,233c4.7,10.1,13.4,17.7,24,21.1L115.5,270.9z M156.5,270.9L148,254
			c10.6-3.4,19.3-11,24-21.1l11.8,2.4C182.8,252.6,172.2,266.4,156.5,270.9z M296,128c0-8.8,7.2-16,16-16v32
			C303.2,144,296,136.8,296,128z M328,144v-33.6c15.7-4.1,26.6-10.5,36.4-16.3C377.1,86.5,388.1,80,408,80c8.8,0,16,7.2,16,16v48
			c0,26.5-21.5,48-48,48S328,170.5,328,144L328,144z M376,208c6.6,0,13-1,19-2.9l4.1,16.4L376,244.7l-23.1-23.1l4.1-16.4
			C363,207,369.4,208,376,208z M337,233.5l4.3-0.9l21.7,21.7l-21,12.6L337,233.5z M409.9,267l-21-12.6l21.7-21.7l4.3,0.9L409.9,267z
			 M472,440c-8.8,0-16-7.2-16-16v-16h32v16C488,432.8,480.8,440,472,440z"/>
		<circle class="st1" cx="400" cy="128" r="8"/>
		<circle class="st1" cx="352" cy="128" r="8"/>
		<path class="st1" d="M406.3,157.3l0.8-1.7l-14.3-7.2l-0.8,1.7c-3,6.1-9.2,9.9-16,9.9s-13-3.8-16-9.9l-0.8-1.7l-14.3,7.2l0.8,1.7
			c5.8,11.6,17.4,18.7,30.3,18.7S400.5,168.8,406.3,157.3z"/>
		<circle class="st1" cx="160" cy="128" r="8"/>
		<circle class="st1" cx="112" cy="128" r="8"/>
		<path class="st1" d="M166.3,157.3l0.8-1.7l-14.3-7.2l-0.8,1.7c-3,6.1-9.2,9.9-16,9.9s-13-3.8-16-9.9l-0.8-1.7l-14.3,7.2l0.8,1.7
			c5.8,11.6,17.4,18.7,30.3,18.7S160.5,168.8,166.3,157.3z"/>
	</g>
	<g>
		<path class="st0" d="M256,507.3l-93.1-93.1C150.7,402,144,385.8,144,368.6c0-35.6,29-64.6,64.6-64.6c17.2,0,33.5,6.7,45.7,18.9
			l1.8,1.8l1.8-1.8c12.2-12.2,28.4-18.9,45.7-18.9c35.6,0,64.6,29,64.6,64.6c0,17.2-6.7,33.5-18.9,45.7L256,507.3z"/>
	</g>
</g>
</svg>
