<?xml version="1.0" encoding="utf-8"?>
<!-- Generator: Adobe Illustrator 22.0.1, SVG Export Plug-In . SVG Version: 6.00 Build 0)  -->
<svg version="1.1" id="Layer_5" xmlns="http://www.w3.org/2000/svg" xmlns:xlink="http://www.w3.org/1999/xlink" x="0px" y="0px"
	 viewBox="0 0 512 512" style="enable-background:new 0 0 512 512;" xml:space="preserve">
<style type="text/css">
	.st0{fill:#CC0000;}
	.st1{fill:#1F373D;}
</style>
<path class="st0" d="M64,368.4V496h32V348.2L64,368.4z"/>
<path class="st0" d="M208,348.2V496h32V368.4L208,348.2z"/>
<path class="st1" d="M472,51h-48v149h48V51z M456,184h-16V67h16V184z"/>
<path class="st1" d="M360,179h16V96h16v98h16V80h-48V179z"/>
<path class="st1" d="M296,184.7h16V117h16v59.3h16V101h-48V184.7z"/>
<path class="st1" d="M480,8H224c-13.2,0-24,10.8-24,24v136H72c-8.8,0-16,7.2-16,16h-8c-13.2,0-24,10.8-24,24v42.7
	C13.1,258.3,8,280.4,8,288c0,13.2,10.8,24,24,24s24-10.8,24-24c0-7.6-5.1-29.7-16-37.3V208c0-4.4,3.6-8,8-8h8c0,8.8,7.2,16,16,16
	v29.4l5,2c0.4,0.2,2.8,1.1,6.5,2.4C81.2,257,80,264.4,80,272c0,25.8,13.7,48.5,34.2,61.2C53.1,349.8,8,405.7,8,472v32h288v-32
	c0-66.3-45.1-122.2-106.2-138.8c20.5-12.7,34.2-35.3,34.2-61.2c0-7.6-1.2-15-3.5-22.2c3.7-1.3,6.1-2.3,6.5-2.4l5-2V232h28.9v-16H232
	c8.8,0,16-7.2,16-16h32v-76h-48v44h-16V32c0-4.4,3.6-8,8-8h256c4.4,0,8,3.6,8,8v176c0,4.4-3.6,8-8,8h-52.9v16H480
	c13.2,0,24-10.8,24-24V32C504,18.8,493.2,8,480,8L480,8z M32,296c-4.4,0-8-3.6-8-8c0-6.6,4.6-19.5,8-23.3c3.4,3.8,8,16.7,8,23.3
	C40,292.4,36.4,296,32,296z M248,140h16v44h-16V140z M110.6,351l30.5,26.2l-11.7,15.6l-20.6-41.2C109.4,351.5,110,351.2,110.6,351
	L110.6,351z M129.4,346.1c7.3-1.3,14.9-2.1,22.6-2.1s15.2,0.8,22.6,2.1L152,365.5L129.4,346.1z M280,472v16H24v-16
	c0-49.7,28.6-92.8,70.1-114l32.6,65.1l25.4-33.8l25.4,33.8l32.6-65.1C251.4,379.2,280,422.3,280,472z M193.4,351
	c0.6,0.2,1.2,0.4,1.8,0.7l-20.6,41.2l-11.7-15.6L193.4,351z M152,328c-30.9,0-56-25.1-56-56c0-5.9,0.9-11.7,2.7-17.2
	c14.9,4.4,35.1,9.2,53.3,9.2s38.4-4.8,53.3-9.2c1.8,5.5,2.7,11.3,2.7,17.2C208,302.9,182.9,328,152,328z M216,234.4
	c-11.5,4.1-40.4,13.6-64,13.6s-52.5-9.4-64-13.6V216h128V234.4z M232,184v16H72v-16l0,0H232z"/>
<path class="st1" d="M144,408h16v16h-16V408z"/>
<path class="st1" d="M144,440h16v16h-16V440z"/>
<path class="st1" d="M473.4,432c-8.2,0-15.9-3.2-21.7-9l-63.4-63.4l11.3-11.3l63.4,63.4c2.7,2.7,6.5,4.3,10.3,4.3
	c8.1,0,14.6-6.6,14.6-14.6c0-3.8-1.6-7.6-4.3-10.3l-63.4-63.4l11.3-11.3l63.4,63.4c5.8,5.8,9,13.5,9,21.7
	C504,418.3,490.3,432,473.4,432z"/>
<path class="st0" d="M344,376c-57.3,0-104-46.7-104-104s46.7-104,104-104s104,46.7,104,104S401.3,376,344,376z M344,208
	c-35.3,0-64,28.7-64,64s28.7,64,64,64s64-28.7,64-64S379.3,208,344,208z"/>
<path class="st1" d="M344,344c-39.7,0-72-32.3-72-72s32.3-72,72-72s72,32.3,72,72S383.7,344,344,344z M344,216
	c-30.9,0-56,25.1-56,56s25.1,56,56,56s56-25.1,56-56S374.9,216,344,216z"/>
</svg>
