<?xml version="1.0" encoding="utf-8"?>
<!-- Generator: Adobe Illustrator 22.0.1, SVG Export Plug-In . SVG Version: 6.00 Build 0)  -->
<svg version="1.1" id="Layer_5" xmlns="http://www.w3.org/2000/svg" xmlns:xlink="http://www.w3.org/1999/xlink" x="0px" y="0px"
	 viewBox="0 0 512 512" style="enable-background:new 0 0 512 512;" xml:space="preserve">
<style type="text/css">
	.st0{fill:#CC0000;}
	.st1{fill:#1F373D;}
</style>
<g>
	<g>
		<g>
			<path class="st0" d="M184,432h-48c-8.8,0-16-7.2-16-16v-32c0-8.8,7.2-16,16-16h48c8.8,0,16,7.2,16,16v32
				C200,424.8,192.8,432,184,432z"/>
		</g>
	</g>
	<g>
		<g>
			<path class="st0" d="M152,200h-40c-39.7,0-72-32.3-72-72v-8h40c39.7,0,72,32.3,72,72V200z"/>
		</g>
	</g>
	<g>
		<path class="st0" d="M104,72h64c0-35.3-28.7-64-64-64H40C40,43.3,68.7,72,104,72z"/>
	</g>
	<g>
		<path class="st0" d="M232,136h-64c0-35.3,28.7-64,64-64h64C296,107.3,267.3,136,232,136z"/>
	</g>
	<g>
		<g>
			<path class="st0" d="M484.9,168.2l-85.1-85.1l106.4-21.3L484.9,168.2z"/>
		</g>
	</g>
	<path class="st1" d="M472,155.3l-16-16V448h-16V140.7l8.3-9.1L437,120.3l-69.2,76.1l-55.5-55.5L196.9,248H168V72h-16v176h-48
		c-13.2,0-24,10.8-24,24v24H32c-13.2,0-24,10.8-24,24v160c0,13.2,10.8,24,24,24h256c13.2,0,24-10.8,24-24v-16h160V155.3z M96,272
		c0-4.4,3.6-8,8-8h112c4.4,0,8,3.6,8,8v24H96V272z M224,408c29.8,0,56.1-14.9,72-37.6V480c0,4.4-3.6,8-8,8H32c-4.4,0-8-3.6-8-8
		V370.4C39.9,393.1,66.2,408,96,408h24v-16H96c-39.7,0-72-32.3-72-72c0-4.4,3.6-8,8-8h256c4.4,0,8,3.6,8,8c0,39.7-32.3,72-72,72h-24
		v16H224z M328,448h-16V320c0-13.2-10.8-24-24-24h-48v-24c0-11.9-8.7-21.7-20.1-23.6l91.8-85.3l16.2,16.2L328,448L328,448z M360,448
		h-16V195.3l16,16V448z M392,448h-16V211.1l16-17.6V448z M424,448h-16V175.9l16-17.6V448z"/>
</g>
</svg>
